<svg xmlns="http://www.w3.org/2000/svg" xml:space="preserve" viewBox="0 0 128 128"><path fill="#ffca28" d="m73 41-55 1C5 42 5 58 17 59l32 1c-5 2-7 12 3 15-5 2-6 13 5 14-4 3-5 11 6 15 8 2 28 2 40-3 9-3 8-5 17-5q2 0 2-3c1-6 2-26 0-33q0-2-2-2l-5-5q-6-9-23-18-8-4-11-18c0-6-8-8-11-3q-4 5-3 11-1 8 6 16"/><defs><path id="a" d="m73 41-55 1C5 42 5 58 17 59l32 1c-5 2-7 12 3 15-5 2-6 13 5 14-4 3-5 11 6 15 8 2 28 2 40-3 9-3 8-5 17-5q2 0 2-3c1-6 2-26 0-33q0-2-2-2l-5-5q-6-9-23-18-8-4-11-18c0-6-8-8-11-3q-4 5-3 11-1 8 6 16"/></defs><clipPath id="b"><use overflow="visible" href="#a"/></clipPath><g fill="#faa700" clip-path="url(#b)"><path d="M58 60q-1 1-3 6 1 5 3 7c1 3-2 4-1 8 1 5 4 4 4 7q-1 3-2 7 1 5 6 7 2 2 0 3c-1 0-12-1-15-8-3-8-11-30-8-37l13-2q2-1 3 2M71 41l-1 1-51 3c-9 0-9 7-6 10q1 3-2 2-5-1-5-8 1-10 9-9zM123 62c-16 0-14-12-25-19-15-10-16-11-20-25q-3-7-7-3c-4 4-5-1-4-2s8-8 15-1l42 46z"/></g><defs><path id="c" d="m73 41-55 1C5 42 5 58 17 59l32 1c-5 2-7 12 3 15-5 2-6 13 5 14-4 3-5 11 6 15 8 2 28 2 40-3 9-3 8-5 17-5q2 0 2-3c1-6 2-26 0-33q0-2-2-2l-5-5q-6-9-23-18-8-4-11-18c0-6-8-8-11-3q-4 5-3 11-1 8 6 16"/></defs><clipPath id="d"><use overflow="visible" href="#c"/></clipPath><g fill="#b55e19" clip-path="url(#d)"><path d="M73 41h2v-1c-1-1-6-8-6-15q0-5 4-13l-1-1c-1 1-7 4-7 14s8 16 8 16M8 50l1 1q1 2 9 5c8 3 38 2 39 2q2 1-1 2h-7s-31 1-37-1-4-9-4-9M45 69zq1 3 10 3 3 2 0 3H46zM48 84h1q2 3 10 3 3 2 0 3l-2-1h-7zM54 96l1 1q1 2 8 4c3 1 21 2 32-1l14-5q6-3 8-1 4 1 6 0l-2 4-27 9-39-1z"/></g></svg>