<svg xmlns="http://www.w3.org/2000/svg" xml:space="preserve" viewBox="0 0 128 128"><path fill="#ffca28" d="m59 41 55 1c12 0 12 16 0 16l-32 2c5 2 8 12-3 15 5 2 6 12-4 14 4 3 4 11-6 14-9 3-28 3-40-2-10-3-9-6-17-5q-2 0-3-3V59l2-1q4-2 5-5 7-10 24-18 8-4 10-18c1-7 9-8 12-3q3 5 3 11 0 8-6 16"/><defs><path id="a" d="m59 41 55 1c12 0 12 16 0 16l-32 2c5 2 8 12-3 15 5 2 6 12-4 14 4 3 4 11-6 14-9 3-28 3-40-2-10-3-9-6-17-5q-2 0-3-3V59l2-1q4-2 5-5 7-10 24-18 8-4 10-18c1-7 9-8 12-3q3 5 3 11 0 8-6 16"/></defs><clipPath id="b"><use overflow="visible" href="#a"/></clipPath><g fill="#faa700" clip-path="url(#b)"><path d="M73 60q1 1 3 6-1 5-3 7l2 8c-1 5-5 4-5 7q1 3 2 7-1 5-5 7-4 3 0 3 8 1 14-8c3-8 11-30 9-37l-14-2q-1-1-3 2M60 41l1 1 52 3c9 0 8 7 6 10q-2 3 2 2 5-1 4-8-2-10-8-9zM8 62c16 0 14-12 25-19 16-10 17-11 20-25q3-7 8-2c5 5 5-2 3-3s-7-8-14-1L8 58z"/></g><defs><path id="c" d="m59 41 55 1c12 0 12 16 0 16l-32 2c5 2 8 12-3 15 5 2 6 12-4 14 4 3 4 11-6 14-9 3-28 3-40-2-10-3-9-6-17-5q-2 0-3-3V59l2-1q4-2 5-5 7-10 24-18 8-4 10-18c1-7 9-8 12-3q3 5 3 11 0 8-6 16"/></defs><clipPath id="d"><use overflow="visible" href="#c"/></clipPath><g fill="#b55e19" clip-path="url(#d)"><path d="M59 41h-2v-1c0-1 5-8 5-15q1-5-3-13l1-1c1 1 6 4 6 14s-7 16-7 16M124 50l-2 1q-1 2-8 5c-7 3-38 2-39 2v2h7s31 1 37-1 5-9 5-9M87 69h-1q-2 3-11 3-2 2 0 3h11zM83 84h-1q-2 3-10 3v3l3-1h7zM78 96l-2 1q0 2-7 4c-4 1-21 2-33-1l-13-5q-6-3-9-1-5 1-6 0l3 4 27 9 38-1z"/></g></svg>